<svg width="512" height="512" viewBox="0 0 512 512" fill="none" xmlns="http://www.w3.org/2000/svg">
<g clip-path="url(#clip0_203_57)">
<rect width="512" height="512" fill="black"/>
<path d="M224 336V360L273 323.5C275.5 321.5 279 320 282.5 320H352C360.5 320 368 313 368 304V160C368 151.5 360.5 144 352 144H160C151 144 144 151.5 144 160V304C144 313 151 320 160 320H208C216.5 320 224 327.5 224 336ZM160 128H352C369.5 128 384 142.5 384 160V304C384 322 369.5 336 352 336H282.5L220.5 382.5C218 384.5 215 384.5 212 383.5C209.5 382 208 379.5 208 376V352V336H192H160C142 336 128 322 128 304V160C128 142.5 142 128 160 128ZM212 189C215.5 177 226.5 168 239 168H268C285.5 168 300 182.5 300 200.5C300 212.5 293 223.5 282.5 229L264 238.5V248C264 252.5 260 256 256 256C251.5 256 248 252.5 248 248V233.5C248 230.5 249.5 228 252 226.5L275 214.5C280.5 212 284 206.5 284 200.5C284 191.5 276.5 184 268 184H239C233.5 184 229 188 227.5 193V193.5C226.5 198 222 200.5 217.5 199C213.5 198 211 193.5 212 189.5V189ZM268 280C268 287 262.5 292 256 292C249 292 244 287 244 280C244 273.5 249 268 256 268C262.5 268 268 273.5 268 280Z" fill="#FF6600"/>
</g>
<defs>
<clipPath id="clip0_203_57">
<rect width="512" height="512" fill="white"/>
</clipPath>
</defs>
</svg>
