<svg width="512" height="512" viewBox="0 0 512 512" fill="none" xmlns="http://www.w3.org/2000/svg">
<g clip-path="url(#clip0_191_22)">
<rect width="512" height="512" fill="black"/>
<path d="M160 160C151 160 144 167.5 144 176V293L177.5 259C185.5 251.5 198 251.5 206 259L240 293L305.5 227C313.5 219.5 326 219.5 334 227L368 261V176C368 167.5 360.5 160 352 160H160ZM144 315.5V336C144 345 151 352 160 352H180.5L228.5 304L194.5 270.5C193 269 190.5 269 189 270.5L144 315.5ZM322.5 238.5C321 237 318.5 237 317 238.5L203 352H352C360.5 352 368 345 368 336V283.5L322.5 238.5ZM128 176C128 158.5 142 144 160 144H352C369.5 144 384 158.5 384 176V336C384 354 369.5 368 352 368H160C142 368 128 354 128 336V176ZM208 200C208 196 204 192 200 192C195.5 192 192 196 192 200C192 204.5 195.5 208 200 208C204 208 208 204.5 208 200ZM176 200C176 191.5 180.5 184 188 179.5C195 175 204.5 175 212 179.5C219 184 224 191.5 224 200C224 209 219 216.5 212 221C204.5 225.5 195 225.5 188 221C180.5 216.5 176 209 176 200Z" fill="#FF6600"/>
</g>
<defs>
<clipPath id="clip0_191_22">
<rect width="512" height="512" fill="white"/>
</clipPath>
</defs>
</svg>
