<svg width="512" height="512" viewBox="0 0 512 512" fill="none" xmlns="http://www.w3.org/2000/svg">
<g clip-path="url(#clip0_158_24)">
<rect width="512" height="512" fill="black"/>
<path d="M192 168C198.5 168 204 163 204 156C204 149.5 198.5 144 192 144C185 144 180 149.5 180 156C180 163 185 168 192 168ZM192 128C202 128 211 133.5 216 142C221 151 221 161.5 216 170C211 179 202 184 192 184C181.5 184 172.5 179 167.5 170C162.5 161.5 162.5 151 167.5 142C172.5 133.5 181.5 128 192 128ZM176 210V288H208V210C205 209 201.5 208 198 208H185.5C182 208 179 209 176 210ZM176 304V376C176 380.5 172 384 168 384C163.5 384 160 380.5 160 376V229.5L135 276C132.5 280 128 281.5 124 279.5C120 277 118.5 272.5 120.5 268.5L150 213.5C157 200.5 170.5 192 185.5 192H198C213 192 226.5 200.5 233.5 213.5L258 259C254 264 251 269 248 275L224 229.5V376C224 380.5 220 384 216 384C211.5 384 208 380.5 208 376V304H176ZM328 368C348 368 366 357.5 376 340C386.5 323 386.5 301.5 376 284C366 267 348 256 328 256C307.5 256 289.5 267 279.5 284C269 301.5 269 323 279.5 340C289.5 357.5 307.5 368 328 368ZM328 240C353.5 240 377 254 390 276C403 298.5 403 326 390 348C377 370.5 353.5 384 328 384C302 384 278.5 370.5 265.5 348C252.5 326 252.5 298.5 265.5 276C278.5 254 302 240 328 240ZM361.5 290.5C364.5 293.5 364.5 299 361.5 302L325.5 338C322.5 341 317 341 314 338L294 318C291 315 291 309.5 294 306.5C297 303.5 302.5 303.5 305.5 306.5L320 321L350 290.5C353 287.5 358.5 287.5 361.5 290.5Z" fill="#FF6600"/>
</g>
<defs>
<clipPath id="clip0_158_24">
<rect width="512" height="512" fill="white"/>
</clipPath>
</defs>
</svg>
