<svg width="512" height="512" viewBox="0 0 512 512" fill="none" xmlns="http://www.w3.org/2000/svg">
<g clip-path="url(#clip0_169_22)">
<rect width="512" height="512" fill="black"/>
<path d="M162.5 233.5C161.5 237.5 158 240 154.5 240C149.5 240 145.5 236 146.5 231C158 181.5 202.5 144 256 144C296.5 144 332 166 352 198.5V168C352 164 355.5 160 360 160C364 160 368 164 368 168V216C368 220.5 364 224 360 224H352H312C307.5 224 304 220.5 304 216C304 212 307.5 208 312 208H339C322.5 179.5 291.5 160 256 160C210.5 160 172.5 191.5 162.5 233.5ZM349 279C350 275 353.5 272 357.5 272C362 272 366 276.5 365 281.5C353.5 331 309 368 256 368C215 368 179.5 346.5 160 314V344C160 348.5 156.5 352 152 352C147.5 352 144 348.5 144 344V296C144 292 147.5 288 152 288H159.5H200C204.5 288 208 292 208 296C208 300.5 204.5 304 200 304H172.5C189 333 220 352 256 352C301 352 339 321 349 279Z" fill="#FF6600"/>
</g>
<defs>
<clipPath id="clip0_169_22">
<rect width="512" height="512" fill="white"/>
</clipPath>
</defs>
</svg>
