<svg width="512" height="512" viewBox="0 0 512 512" fill="none" xmlns="http://www.w3.org/2000/svg">
<g clip-path="url(#clip0_224_59)">
<rect width="512" height="512" fill="black"/>
<path d="M168 160C163.5 160 160 164 160 168V216C160 220.5 163.5 224 168 224H216C220 224 224 220.5 224 216V168C224 164 220 160 216 160H168ZM144 168C144 155 154.5 144 168 144H216C229 144 240 155 240 168V216C240 229.5 229 240 216 240H168C154.5 240 144 229.5 144 216V168ZM168 288C163.5 288 160 292 160 296V344C160 348.5 163.5 352 168 352H216C220 352 224 348.5 224 344V296C224 292 220 288 216 288H168ZM144 296C144 283 154.5 272 168 272H216C229 272 240 283 240 296V344C240 357.5 229 368 216 368H168C154.5 368 144 357.5 144 344V296ZM344 160H296C291.5 160 288 164 288 168V216C288 220.5 291.5 224 296 224H344C348 224 352 220.5 352 216V168C352 164 348 160 344 160ZM296 144H344C357 144 368 155 368 168V216C368 229.5 357 240 344 240H296C282.5 240 272 229.5 272 216V168C272 155 282.5 144 296 144ZM296 288C291.5 288 288 292 288 296V344C288 348.5 291.5 352 296 352H344C348 352 352 348.5 352 344V296C352 292 348 288 344 288H296ZM272 296C272 283 282.5 272 296 272H344C357 272 368 283 368 296V344C368 357.5 357 368 344 368H296C282.5 368 272 357.5 272 344V296Z" fill="#FF6600"/>
</g>
<defs>
<clipPath id="clip0_224_59">
<rect width="512" height="512" fill="white"/>
</clipPath>
</defs>
</svg>
