<svg width="512" height="512" viewBox="0 0 512 512" fill="none" xmlns="http://www.w3.org/2000/svg">
<g clip-path="url(#clip0_240_57)">
<rect width="512" height="512" fill="black"/>
<path d="M144 368H260C265 374 270.5 379.5 276.5 384C275 384 273.5 384 272 384H144C126 384 112 370 112 352V160C112 142.5 126 128 144 128H222C228 128 234.5 131 239 135.5L296.5 193C301 197.5 304 204 304 210V227.5C298 229 293 231 288 234V224H232C218.5 224 208 213.5 208 200V144H144C135 144 128 151.5 128 160V352C128 361 135 368 144 368ZM287.5 208C287 207 286.5 205.5 285.5 204.5L227.5 146.5C226.5 145.5 225 145 224 144.5V200C224 204.5 227.5 208 232 208H287.5ZM384 312C384 292 373 274 356 264C338.5 253.5 317 253.5 300 264C282.5 274 272 292 272 312C272 332.5 282.5 350.5 300 360.5C317 371 338.5 371 356 360.5C373 350.5 384 332.5 384 312ZM256 312C256 286.5 269.5 263 292 250C314 237 341.5 237 364 250C386 263 400 286.5 400 312C400 338 386 361.5 364 374.5C341.5 387.5 314 387.5 292 374.5C269.5 361.5 256 338 256 312ZM328 296C321 296 316 291 316 284C316 277.5 321 272 328 272C334.5 272 340 277.5 340 284C340 291 334.5 296 328 296ZM312 344C312 340 315.5 336 320 336V320C315.5 320 312 316.5 312 312C312 308 315.5 304 320 304H328C332 304 336 308 336 312V336C340 336 344 340 344 344C344 348.5 340 352 336 352H328H320C315.5 352 312 348.5 312 344Z" fill="#FF6600"/>
</g>
<defs>
<clipPath id="clip0_240_57">
<rect width="512" height="512" fill="white"/>
</clipPath>
</defs>
</svg>
