<svg width="512" height="512" viewBox="0 0 512 512" fill="none" xmlns="http://www.w3.org/2000/svg">
<g clip-path="url(#clip0_189_22)">
<rect width="512" height="512" fill="white"/>
<path d="M288 304H312C325 304 336 293.5 336 280V272H176V280C176 293.5 186.5 304 200 304H224C232.5 304 240 311.5 240 320V352C240 361 247 368 256 368C264.5 368 272 361 272 352V320C272 311.5 279 304 288 304ZM336 256V160C336 151.5 328.5 144 320 144H272V184C272 188.5 268 192 264 192C259.5 192 256 188.5 256 184V144H224V200C224 204.5 220 208 216 208C211.5 208 208 204.5 208 200V144H192C183 144 176 151.5 176 160V256H336ZM200 320C177.5 320 160 302.5 160 280V160C160 142.5 174 128 192 128H320C337.5 128 352 142.5 352 160V280C352 302.5 334 320 312 320H304H288V336V352C288 370 273.5 384 256 384C238 384 224 370 224 352V336V320H208H200Z" fill="#FF6600"/>
</g>
<defs>
<clipPath id="clip0_189_22">
<rect width="512" height="512" fill="white"/>
</clipPath>
</defs>
</svg>
