<svg xmlns="http://www.w3.org/2000/svg" width="512" height="512" fill="none"><g clip-path="url(#a)"><path fill="#000" d="M0 0h512v512H0z"/><path fill="#fff" d="m327 86 57-22 21-56c1-5 6-8 11-8 4 0 9 3 10 8l22 56 56 22c5 1 8 6 8 10 0 5-3 10-8 11l-56 21-22 57c-1 4-6 7-10 7-5 0-10-3-11-7l-21-57-57-21c-4-1-7-6-7-11 0-4 3-9 7-10M9 240l17-7 8-4h1l88-41 41-89 4-8 8-17c2-6 8-10 14-10s12 4 15 10l8 17 3 8 1 1 40 88 89 41 8 4 17 8c6 2 10 8 10 14s-4 12-10 15l-17 7-8 4-89 41-41 88v1l-4 8-7 17c-3 6-9 10-15 10s-12-4-14-10l-8-17-4-8v-1l-41-88-88-41h-1l-8-4-17-7c-6-3-9-9-9-15s3-12 9-15m83 15 51 24c10 4 19 13 24 23l23 51 24-51c5-10 13-19 23-23l51-24-51-24c-10-4-18-13-23-23l-24-51-23 51c-5 10-14 19-24 23zm292 129 21-56c1-5 6-8 11-8 4 0 9 3 10 8l22 56 56 22c5 1 8 6 8 10 0 5-3 10-8 11l-56 21-22 57c-1 4-6 7-10 7-5 0-10-3-11-7l-21-57-57-21c-4-1-7-6-7-11 0-4 3-9 7-10z"/><path stroke="#CED4DA" stroke-dasharray="5 5" stroke-width="2" d="M1 1h510v510H1z"/></g><defs><clipPath id="a"><path fill="#fff" d="M0 0h512v512H0z"/></clipPath></defs></svg>