<svg width="512" height="512" viewBox="0 0 512 512" fill="none" xmlns="http://www.w3.org/2000/svg">
<g clip-path="url(#clip0_153_23)">
<rect width="512" height="512" fill="black"/>
<path d="M320 368C328.5 368 336 361 336 352V224H280C266.5 224 256 213.5 256 200V144H192C183 144 176 151.5 176 160V352C176 361 183 368 192 368H320ZM280 208H335.5C335 207 334.5 205.5 333.5 204.5L275.5 146.5C274.5 145.5 273 145 272 144.5V200C272 204.5 275.5 208 280 208ZM192 128H270C276 128 282.5 131 287 135.5L344.5 193C349 197.5 352 204 352 210V352C352 370 337.5 384 320 384H192C174 384 160 370 160 352V160C160 142.5 174 128 192 128ZM216 256H296C300 256 304 260 304 264C304 268.5 300 272 296 272H216C211.5 272 208 268.5 208 264C208 260 211.5 256 216 256ZM216 288H296C300 288 304 292 304 296C304 300.5 300 304 296 304H216C211.5 304 208 300.5 208 296C208 292 211.5 288 216 288ZM216 320H296C300 320 304 324 304 328C304 332.5 300 336 296 336H216C211.5 336 208 332.5 208 328C208 324 211.5 320 216 320Z" fill="#FF6600"/>
</g>
<defs>
<clipPath id="clip0_153_23">
<rect width="512" height="512" fill="white"/>
</clipPath>
</defs>
</svg>
