<svg width="512" height="512" viewBox="0 0 512 512" fill="none" xmlns="http://www.w3.org/2000/svg">
<g clip-path="url(#clip0_205_57)">
<rect width="512" height="512" fill="black"/>
<path d="M304 192C304 175 294.5 159.5 280 150.5C265 142 246.5 142 232 150.5C217 159.5 208 175 208 192C208 209.5 217 225 232 234C246.5 242.5 265 242.5 280 234C294.5 225 304 209.5 304 192ZM192 192C192 169.5 204 148.5 224 137C243.5 125.5 268 125.5 288 137C307.5 148.5 320 169.5 320 192C320 215 307.5 236 288 247.5C268 259 243.5 259 224 247.5C204 236 192 215 192 192ZM160 368H352C351 328.5 318.5 296 278.5 296H233C193 296 160.5 328.5 160 368ZM144 369.5C144 320 183.5 280 233 280H278.5C328 280 368 320 368 369.5C368 377.5 361 384 353 384H158.5C150.5 384 144 377.5 144 369.5Z" fill="#FF6600"/>
</g>
<defs>
<clipPath id="clip0_205_57">
<rect width="512" height="512" fill="white"/>
</clipPath>
</defs>
</svg>
