<svg width="512" height="512" viewBox="0 0 512 512" fill="none" xmlns="http://www.w3.org/2000/svg">
<g clip-path="url(#clip0_153_26)">
<rect width="512" height="512" fill="black"/>
<path d="M248 136C248 132 251.5 128 256 128C260 128 264 132 264 136V144.5C304 148.5 336 182.5 336 224V239C336 260.5 344.5 281.5 360 297L361.5 298.5C365.5 302.5 368 308.5 368 314C368 326.5 358 336.5 345.5 336.5H166C153.5 336 144 326.5 144 314C144 308 146 302.5 150.5 298.5L151.5 297C167 281.5 176 260.5 176 239V224C176 182.5 207.5 148.5 248 144.5V136ZM256 160C220.5 160 192 189 192 224V239C192 265 181.5 290 163 308.5L161.5 309.5C160.5 311 160 312.5 160 314C160 317.5 162.5 320 166 320H345.5C349 320 352 317.5 352 314C352 312.5 351 311 350 309.5L348.5 308.5C330 290 319.5 265 319.5 238.5V224C319.5 189 291 160 255.5 160H256ZM240.5 357.5C243 364 249 368 256 368C262.5 368 268.5 364 271 357.5C272.5 353.5 277 351 281 352.5C285 354 287.5 358.5 286 363C281.5 375.5 269.5 384 256 384C242 384 230 375.5 225.5 363C224 358.5 226.5 354 230.5 352.5C234.5 351 239 353.5 240.5 357.5Z" fill="#FF6600"/>
</g>
<defs>
<clipPath id="clip0_153_26">
<rect width="512" height="512" fill="white"/>
</clipPath>
</defs>
</svg>
