<svg width="512" height="512" viewBox="0 0 512 512" fill="none" xmlns="http://www.w3.org/2000/svg">
<g clip-path="url(#clip0_224_57)">
<rect width="512" height="512" fill="black"/>
<path d="M392 144C396 144 400 148 400 152V164V348V360C400 364.5 396 368 392 368C387.5 368 384 364.5 384 360V354.5L286.5 330C282 352 263 368 240 368C213.5 368 192 346.5 192 320C192 315.5 192.5 311 193.5 307L128 290.5V296C128 300.5 124 304 120 304C115.5 304 112 300.5 112 296V286.5V280V232V226V216C112 212 115.5 208 120 208C124 208 128 212 128 216V222L384 158V152C384 148 387.5 144 392 144ZM384 338V174.5L128 238.5V274L384 338ZM208 320C208 338 222 352 240 352C255.5 352 268.5 341 271 326.5L209 311C208.5 314 208 317 208 320Z" fill="#FF6600"/>
</g>
<defs>
<clipPath id="clip0_224_57">
<rect width="512" height="512" fill="white"/>
</clipPath>
</defs>
</svg>
