<svg width="512" height="512" viewBox="0 0 512 512" fill="none" xmlns="http://www.w3.org/2000/svg">
<g clip-path="url(#clip0_153_28)">
<rect width="512" height="512" fill="white"/>
<path d="M250 193.5L244 187L241.5 184.5C228.5 170 209 163 190 166.5C163 171.5 144 194.5 144 221.5V223.5C144 239.5 150.5 255 162.5 266L254.5 351.5C254.5 352 255 352 256 352C256.5 352 257 352 257.5 351.5L349.5 266C361 255 368 239.5 368 223.5V221.5C368 194.5 348.5 171.5 322 166.5C302.5 163 283 170 270 184.5L268 187L262 193.5C260.5 195 258 196 256 196C253.5 196 251.5 195 250 193.5ZM267 165C283.5 152.5 304 147 324.5 151C359 157 384 187 384 221.5V223.5C384 241.5 377 258.5 365.5 272C364 274 362 276 360 277.5L268 363.5C267.5 363.5 267.5 364 267 364.5C263.5 367 260 368 256 368C251 368 247 366.5 243.5 363.5L151.5 277.5C149.5 276 147.5 274 146 272C134.5 258.5 128 241.5 128 223.5V221.5C128 187 152.5 157 187 151C207.5 147 228 152.5 244.5 165C247.5 167.5 251 170.5 253.5 174L255.5 176L258 174C260 171.5 262 169 264.5 167C265.5 166.5 266.5 165.5 267 165Z" fill="#FF6600"/>
</g>
<defs>
<clipPath id="clip0_153_28">
<rect width="512" height="512" fill="white"/>
</clipPath>
</defs>
</svg>
