<svg width="512" height="512" viewBox="0 0 512 512" fill="none" xmlns="http://www.w3.org/2000/svg">
<g clip-path="url(#clip0_153_32)">
<rect width="512" height="512" fill="white"/>
<path d="M297 131.5C299.5 129.5 302.5 128 305.5 128C314 128 320 137 317 145L283 240H338.5C345.5 240 352 246.5 352 253.5C352 257.5 350 261.5 347 264L214.5 381C212 383 209 384 206 384C197.5 384 191.5 375.5 194.5 367.5L228.5 272H172.5C165.5 272 160 266.5 160 259.5C160 255.5 161.5 252 164 249.5L297 131.5ZM297.5 152.5L181 256H240C242.5 256 245 257.5 246.5 259.5C248 262 248 264.5 247.5 267L214 360L331.5 256H272C269 256 266.5 255 265 253C263.5 250.5 263.5 248 264 245.5L297.5 152.5Z" fill="#FF6600"/>
</g>
<defs>
<clipPath id="clip0_153_32">
<rect width="512" height="512" fill="white"/>
</clipPath>
</defs>
</svg>
