<svg width="512" height="512" viewBox="0 0 512 512" fill="none" xmlns="http://www.w3.org/2000/svg">
<g clip-path="url(#clip0_153_30)">
<rect width="512" height="512" fill="white"/>
<path d="M112 144V192C112 196.5 108 200 104 200C99.5 200 96 196.5 96 192V140C96 133.5 101 128 108 128H160C164 128 168 132 168 136C168 140.5 164 144 160 144H112ZM400 144H352C347.5 144 344 140.5 344 136C344 132 347.5 128 352 128H404C410.5 128 416 133.5 416 140V192C416 196.5 412 200 408 200C403.5 200 400 196.5 400 192V144ZM160 368C164 368 168 372 168 376C168 380.5 164 384 160 384H108C101 384 96 379 96 372V320C96 316 99.5 312 104 312C108 312 112 316 112 320V368H160ZM400 368V320C400 316 403.5 312 408 312C412 312 416 316 416 320V372C416 379 410.5 384 404 384H352C347.5 384 344 380.5 344 376C344 372 347.5 368 352 368H400ZM240 224C240 233 247 240 256 240C264.5 240 272 233 272 224C272 215.5 264.5 208 256 208C247 208 240 215.5 240 224ZM288 224C288 235.5 281.5 246 272 252C262 257.5 249.5 257.5 240 252C230 246 224 235.5 224 224C224 213 230 202.5 240 196.5C249.5 191 262 191 272 196.5C281.5 202.5 288 213 288 224ZM276 288H236C226 288 218 295 216 304H295.5C293.5 295 285.5 288 276 288ZM236 272H256H276C295.5 272 312 288.5 312 308C312 315 306.5 320 300 320H212C205 320 200 315 200 308C200 288.5 216 272 236 272ZM175.5 216C175.5 220.5 179 224 183.5 224C188 224 191.5 220.5 191.5 216C191.5 212 188 208 183.5 208C179 208 175.5 212 175.5 216ZM207.5 216C207.5 225 203 232.5 195.5 237C188 241.5 179 241.5 171.5 237C164 232.5 159.5 225 159.5 216C159.5 207.5 164 200 171.5 195.5C179 191 188 191 195.5 195.5C203 200 207.5 207.5 207.5 216ZM160 284V288C160 292.5 156 296 152 296C147.5 296 144 292.5 144 288V284C144 269 156.5 256 172 256H200C204 256 208 260 208 264C208 268.5 204 272 200 272H172C165 272 160 277.5 160 284ZM328 208C323.5 208 320 212 320 216C320 220.5 323.5 224 328 224C332.5 224 336 220.5 336 216C336 212 332.5 208 328 208ZM328 240C319.5 240 311.5 235.5 307 228C303 221 303 211.5 307 204C311.5 197 319.5 192 328 192C336.5 192 344.5 197 348.5 204C353 211.5 353 221 348.5 228C344.5 235.5 336.5 240 328 240ZM340 272H312C307.5 272 304 268.5 304 264C304 260 307.5 256 312 256H340C355 256 368 269 368 284V288C368 292.5 364 296 360 296C355.5 296 352 292.5 352 288V284C352 277.5 346.5 272 340 272Z" fill="#FF6600"/>
</g>
<defs>
<clipPath id="clip0_153_30">
<rect width="512" height="512" fill="white"/>
</clipPath>
</defs>
</svg>
