<svg width="512" height="512" viewBox="0 0 512 512" fill="none" xmlns="http://www.w3.org/2000/svg">
<g clip-path="url(#clip0_252_57)">
<rect width="512" height="512" fill="white"/>
<path d="M258.5 146C256.5 145 255 145 253 146L150 183.5L256 225L361.5 183.5L258.5 146ZM144 321C144 324.5 146 327.5 149 328.5L248 365V239L144 198.5V321ZM264 365L362.5 328.5C365.5 327.5 368 324.5 368 321V198.5L264 239V364.5V365ZM247.5 130.5C253 129 258.5 129 264 130.5L368 169C377.5 172.5 384 181.5 384 191.5V321C384 331 377.5 340 368 343.5L264 381.5C258.5 383.5 253 383.5 247.5 381.5L143.5 343.5C134 340 128 331 128 321V191.5C128 181.5 134 172.5 143.5 169L247.5 130.5Z" fill="#FF6600"/>
</g>
<defs>
<clipPath id="clip0_252_57">
<rect width="512" height="512" fill="white"/>
</clipPath>
</defs>
</svg>
