<svg width="326" height="96" viewBox="0 0 326 96" fill="none" xmlns="http://www.w3.org/2000/svg">
<path d="M107.52 70V51.888C107.52 49.4133 106.923 47.5467 105.728 46.288C104.555 45.008 102.987 44.368 101.024 44.368C99.424 44.368 98.016 44.8053 96.8 45.68C95.584 46.5547 94.6347 47.856 93.952 49.584C93.2693 51.312 92.928 53.4347 92.928 55.952H90.592C90.592 52.048 91.0827 48.784 92.064 46.16C93.0667 43.536 94.4747 41.5627 96.288 40.24C98.1227 38.896 100.288 38.224 102.784 38.224C105.301 38.224 107.413 38.7893 109.12 39.92C110.848 41.0507 112.149 42.64 113.024 44.688C113.92 46.736 114.368 49.136 114.368 51.888V70H107.52ZM86.08 70V39.088H92.064L92.928 45.488V70H86.08ZM120.716 70L132.652 54.576L120.716 38.96H129.1L137.036 49.392L144.588 38.96H152.94L141.036 54.576L152.94 70H144.588L136.556 59.568L129.1 70H120.716ZM170.476 70.864C168.684 70.864 167.052 70.5333 165.58 69.872C164.129 69.1893 162.966 68.1653 162.092 66.8C161.217 65.4133 160.78 63.6747 160.78 61.584V30.768H167.596V61.36C167.596 64.0693 168.886 65.424 171.468 65.424C172.257 65.424 173.036 65.3387 173.804 65.168C174.572 64.9973 175.436 64.7307 176.396 64.368L177.388 69.2C176.236 69.6693 175.094 70.064 173.964 70.384C172.854 70.704 171.692 70.864 170.476 70.864ZM156.268 43.664V39.088H176.396V43.664H156.268ZM195.413 70.864C193.621 70.864 191.989 70.5333 190.517 69.872C189.066 69.1893 187.904 68.1653 187.029 66.8C186.154 65.4133 185.717 63.6747 185.717 61.584V30.768H192.533V61.36C192.533 64.0693 193.824 65.424 196.405 65.424C197.194 65.424 197.973 65.3387 198.741 65.168C199.509 64.9973 200.373 64.7307 201.333 64.368L202.325 69.2C201.173 69.6693 200.032 70.064 198.901 70.384C197.792 70.704 196.629 70.864 195.413 70.864ZM181.205 43.664V39.088H201.333V43.664H181.205ZM222.047 70.864C219.252 70.864 216.724 70.256 214.463 69.04C212.223 67.824 210.441 66.0107 209.119 63.6C207.796 61.1893 207.135 58.1813 207.135 54.576C207.135 50.9067 207.796 47.8667 209.119 45.456C210.441 43.0453 212.223 41.2427 214.463 40.048C216.724 38.832 219.252 38.224 222.047 38.224C224.841 38.224 227.348 38.832 229.567 40.048C231.807 41.2427 233.577 43.0453 234.879 45.456C236.201 47.8667 236.863 50.9067 236.863 54.576C236.863 58.1813 236.201 61.1893 234.879 63.6C233.577 66.0107 231.807 67.824 229.567 69.04C227.348 70.256 224.841 70.864 222.047 70.864ZM221.855 64.88C223.476 64.88 224.895 64.4853 226.111 63.696C227.348 62.9067 228.308 61.744 228.991 60.208C229.673 58.672 230.015 56.7947 230.015 54.576C230.015 51.184 229.332 48.6027 227.967 46.832C226.623 45.04 224.724 44.144 222.271 44.144C220.628 44.144 219.188 44.5387 217.951 45.328C216.735 46.1173 215.785 47.2907 215.103 48.848C214.42 50.4053 214.079 52.3147 214.079 54.576C214.079 57.904 214.761 60.4533 216.127 62.224C217.492 63.9947 219.401 64.88 221.855 64.88ZM257.922 70.864C255.127 70.864 252.599 70.256 250.338 69.04C248.098 67.824 246.316 66.0107 244.994 63.6C243.671 61.1893 243.01 58.1813 243.01 54.576C243.01 50.9067 243.671 47.8667 244.994 45.456C246.316 43.0453 248.098 41.2427 250.338 40.048C252.599 38.832 255.127 38.224 257.922 38.224C260.716 38.224 263.223 38.832 265.442 40.048C267.682 41.2427 269.452 43.0453 270.754 45.456C272.076 47.8667 272.738 50.9067 272.738 54.576C272.738 58.1813 272.076 61.1893 270.754 63.6C269.452 66.0107 267.682 67.824 265.442 69.04C263.223 70.256 260.716 70.864 257.922 70.864ZM257.73 64.88C259.351 64.88 260.77 64.4853 261.986 63.696C263.223 62.9067 264.183 61.744 264.866 60.208C265.548 58.672 265.89 56.7947 265.89 54.576C265.89 51.184 265.207 48.6027 263.842 46.832C262.498 45.04 260.599 44.144 258.146 44.144C256.503 44.144 255.063 44.5387 253.826 45.328C252.61 46.1173 251.66 47.2907 250.978 48.848C250.295 50.4053 249.954 52.3147 249.954 54.576C249.954 57.904 250.636 60.4533 252.002 62.224C253.367 63.9947 255.276 64.88 257.73 64.88ZM281.893 70V26.16H288.741V70H281.893Z" fill="black"/>
<path d="M45.9844 28.0938L54 25L56.9531 17.125C57.0938 16.4219 57.7969 16 58.5 16C59.0625 16 59.7656 16.4219 59.9062 17.125L63 25L70.875 28.0938C71.5781 28.2344 72 28.9375 72 29.5C72 30.2031 71.5781 30.9062 70.875 31.0469L63 34L59.9062 42.0156C59.7656 42.5781 59.0625 43 58.5 43C57.7969 43 57.0938 42.5781 56.9531 42.0156L54 34L45.9844 31.0469C45.4219 30.9062 45 30.2031 45 29.5C45 28.9375 45.4219 28.2344 45.9844 28.0938ZM1.26562 49.75L3.65625 48.7656L4.78125 48.2031H4.92188L17.2969 42.4375L23.0625 29.9219L23.625 28.7969L24.75 26.4062C25.0312 25.5625 25.875 25 26.7188 25C27.5625 25 28.4062 25.5625 28.8281 26.4062L29.9531 28.7969L30.375 29.9219L30.5156 30.0625L36.1406 42.4375L48.6562 48.2031L49.7812 48.7656L52.1719 49.8906C53.0156 50.1719 53.5781 51.0156 53.5781 51.8594C53.5781 52.7031 53.0156 53.5469 52.1719 53.9688L49.7812 54.9531L48.6562 55.5156L36.1406 61.2812L30.375 73.6562V73.7969L29.8125 74.9219L28.8281 77.3125C28.4062 78.1562 27.5625 78.7188 26.7188 78.7188C25.875 78.7188 25.0312 78.1562 24.75 77.3125L23.625 74.9219L23.0625 73.7969V73.6562L17.2969 61.2812L4.92188 55.5156H4.78125L3.65625 54.9531L1.26562 53.9688C0.421875 53.5469 0 52.7031 0 51.8594C0 51.0156 0.421875 50.1719 1.26562 49.75ZM12.9375 51.8594L20.1094 55.2344C21.5156 55.7969 22.7812 57.0625 23.4844 58.4688L26.7188 65.6406L30.0938 58.4688C30.7969 57.0625 31.9219 55.7969 33.3281 55.2344L40.5 51.8594L33.3281 48.4844C31.9219 47.9219 30.7969 46.6562 30.0938 45.25L26.7188 38.0781L23.4844 45.25C22.7812 46.6562 21.5156 47.9219 20.1094 48.4844L12.9375 51.8594ZM54 70L56.9531 62.125C57.0938 61.4219 57.7969 61 58.5 61C59.0625 61 59.7656 61.4219 59.9062 62.125L63 70L70.875 73.0938C71.5781 73.2344 72 73.9375 72 74.5C72 75.2031 71.5781 75.9062 70.875 76.0469L63 79L59.9062 87.0156C59.7656 87.5781 59.0625 88 58.5 88C57.7969 88 57.0938 87.5781 56.9531 87.0156L54 79L45.9844 76.0469C45.4219 75.9062 45 75.2031 45 74.5C45 73.9375 45.4219 73.2344 45.9844 73.0938L54 70Z" fill="black"/>
</svg>
